<svg
   xmlns="http://www.w3.org/2000/svg"
   version="1.1"
   id="svg869"
   width="502.66669"
   height="146.66667"
   viewBox="0 0 502.66669 146.66667">
  <path
     style="stroke-width:1.23362052"
     d="M 19.884624,142.92267 C 3.4607805,134.74662 -2.6541605,114.9685 1.0402185,81.972542 6.1924905,35.955595 17.059255,14.867532 39.047857,8.2148529 c 11.307288,-3.421041 43.827322,0.304074 47.152008,5.4011841 0.90253,1.38366 -2.259534,28.664773 -3.522211,30.388407 -0.48233,0.658411 -9.071555,1.19711 -19.087184,1.19711 -16.722531,0 -18.452971,0.243728 -21.181568,2.983369 -4.631495,4.650245 -7.346798,14.234357 -9.296027,32.811826 -2.168775,20.669971 -1.362323,26.133211 4.233681,28.680511 6.895491,3.13882 7.744201,1.00804 10.561791,-26.516703 1.094712,-10.694116 1.792737,-11.156356 16.846959,-11.156356 10.374113,0 13.207416,0.42918 13.663852,2.069756 0.504357,1.812837 -0.395086,9.982355 -5.992949,54.433163 -0.65227,5.17943 -1.723991,10.14339 -2.381612,11.03102 -2.1546,2.90819 -13.529115,5.15903 -29.031419,5.74489 -13.324225,0.50354 -15.969184,0.20806 -21.128554,-2.36036 z m 84.477936,-0.69999 C 92.619675,134.15166 89.360025,119.41999 93.001605,90.879482 97.115845,58.633934 104.62942,44.186134 120.6186,37.775021 c 10.84027,-4.346498 49.88063,-0.628266 51.41784,4.897057 0.33552,1.205636 -0.20387,8.461568 -1.19847,16.124293 -2.06314,15.895509 -4.62301,35.991327 -8.04978,63.191179 -1.30511,10.35887 -2.82591,19.64925 -3.37975,20.64529 -5.18598,2.19175 -21.14961,4.03056 -22.76072,-1.63814 l -0.95083,-3.44914 -5.99875,4.17353 c -8.13067,5.65658 -17.56554,5.84411 -25.33558,0.50359 z m 29.8741,-32.11161 c 2.28152,-7.52838 2.46436,-16.499834 3.417,-23.308124 2.81428,-19.992552 2.92026,-19.14512 -2.39545,-19.14512 -8.34278,0 -11.1286,6.05638 -13.46861,29.280938 -1.59426,15.823426 -0.8161,17.840516 6.36642,16.501786 2.62228,-0.48874 5.35855,-1.987 6.08064,-3.32948 z m 43.89882,29.90268 c -0.69742,-0.96197 -0.053,-9.31165 1.92609,-24.94837 12.15876,-96.076654 14.24854,-111.6480511 15.15168,-112.8937441 0.4979,-0.68665 7.01181,-1.0651669 14.47522,-0.841146 l 13.57011,0.40731 -0.35191,6.38447 c -0.1936,3.5114601 -0.99684,10.6356911 -1.78494,15.8316251 -0.7882,5.195933 -1.19275,9.983408 -0.89908,10.638833 0.29365,0.655423 4.03341,1.191679 8.31054,1.191679 13.25532,0 22.20372,6.621838 27.40946,20.283085 4.39562,11.534783 0.85856,48.339908 -6.25013,65.037438 -4.38917,10.3099 -11.72112,18.20186 -20.30932,21.86051 -13.13211,4.01103 -38.96156,6.84255 -51.24772,-2.95169 z m 44.03404,-29.4315 c 3.1696,-4.37173 4.65843,-11.601115 5.47477,-26.583545 0.79377,-14.571456 0.033,-16.340879 -7.02807,-16.340879 -5.95151,-0.919826 -5.22675,1.651187 -6.1934,9.054949 -3.66688,28.084855 -4.34713,34.567425 -3.76433,35.868225 0.35445,0.791 2.5288,1.43818 4.83183,1.43818 3.00589,0 4.89052,-0.96977 6.6792,-3.43693 z m 167.72749,32.17765 c -7.15609,-3.79128 -13.09678,-12.11249 -14.8646,-20.82109 -1.62891,-8.02432 -0.85263,-27.857625 1.58576,-40.517462 4.05602,-21.05759 10.28701,-32.750184 21.40017,-40.157666 6.22488,-4.149215 8.16071,-4.701216 18.31601,-5.222707 9.00547,-0.462443 12.34362,-0.06273 16.12918,1.931336 13.42501,7.071584 18.72021,23.010552 16.00556,48.177578 -0.72596,6.730634 -1.97922,13.146836 -2.78501,14.258231 -1.15203,1.58897 -5.80124,2.02071 -21.76056,2.02071 -17.48708,0 -20.38316,0.31524 -20.92926,2.27813 -1.0702,3.84622 1.27768,7.68512 5.34362,8.73718 2.12225,0.54915 10.12725,0.5838 17.78869,0.0771 7.66151,-0.50681 14.17981,-0.36401 14.48511,0.3173 0.92501,2.06428 -2.24323,22.1172 -3.84283,24.32365 -2.42422,3.34348 -20.25439,7.6983 -31.26473,7.63602 -7.47392,-0.0423 -11.39177,-0.80498 -15.60711,-3.0382 z m 31.36307,-64.236136 c 1.31517,-4.770988 -0.28119,-10.444723 -3.5097,-12.47359 -4.88619,-3.070685 -11.19587,4.420483 -11.19587,13.292303 0,2.485405 0.77707,2.803267 6.85356,2.803267 6.344,0 6.92798,-0.269313 7.85201,-3.62198 z M 265.18866,142.4835 c -0.52177,-1.87576 0.83428,-14.88396 4.32645,-41.50347 0.8886,-6.773094 2.79816,-21.768089 4.24357,-33.322204 1.44528,-11.554114 3.10017,-23.452317 3.6775,-26.44045 l 1.04979,-5.432969 c 0,0 8.34241,-1.600162 12.56437,-1.600162 4.22196,0 12.56439,1.600162 12.56439,1.600162 v 4.366931 4.366932 l 4.32407,-3.946825 c 3.29038,-3.003432 5.95951,-4.090468 11.16665,-4.547777 l 6.84255,-0.600954 -0.75081,8.511399 c -0.41285,4.681269 -1.22309,11.609394 -1.80052,15.395833 -1.15762,7.592459 -1.05987,7.518077 -11.8347,9.004695 -7.30666,1.008086 -8.52606,2.107504 -9.31759,8.401332 -1.52864,12.153366 -5.00797,39.300897 -6.54045,51.029887 -0.93562,7.16225 -2.19616,13.8448 -2.80108,14.85012 -1.62545,2.70121 -26.95949,2.58011 -27.71419,-0.13242 z m 60.95772,0.39554 c 3.63883,-33.7659 9.83691,-73.173121 12.79506,-104.559247 7.46769,-3.507594 18.9123,-4.848753 28.9188,-1.816987 -6.95466,32.400574 -8.44741,63.751564 -13.2509,106.380564 -0.95344,2.12781 -27.50939,2.12377 -28.46296,-0.004 z m 130.13356,-0.69286 c -0.34552,-1.24171 0.35342,-9.55416 1.55317,-18.4721 2.67913,-19.91605 7.13636,-54.674166 12.7618,-99.520008 1.24932,-9.960443 2.64691,-19.0878311 3.10561,-20.2830841 0.67795,-1.766261 3.46791,-2.173188 14.90012,-2.173188 h 14.06605 c -1.12229,15.4155791 -3.22949,30.2229941 -4.84423,42.7393581 -5.47369,40.039506 -7.09551,49.715881 -13.96973,98.857902 -0.62908,0.58543 -6.94902,1.07439 -14.04428,1.08659 -10.72249,0.0184 -13.00651,-0.35896 -13.52851,-2.23547 z M 340.89274,25.617632 c -0.77142,-1.72158 0.41449,-16.5965011 1.70156,-21.3444461 4.94686,-4.66054494 22.82806,-5.697739 30.70315,-2.173188 0.84936,1.922625 -2.44448,22.6358571 -3.78638,23.8115471 -1.95134,1.709565 -27.83962,1.443688 -28.61833,-0.293913 z" />
</svg>
