<svg
   xmlns="http://www.w3.org/2000/svg"
   version="1.1"
   id="svg64"
   width="757.33331"
   height="181.33333"
   viewBox="0 0 757.33331 181.33333">
  <path
     style="stroke-width:1.24442434"
     d="m 600.90882,180.98227 c -11.15211,-2.69251 -18.40461,-5.31113 -19.48595,-7.03574 -0.83146,-7.89419 -1.406,-15.09192 2.09411,-23.41412 8.05148,-4.08995 34.95983,5.05937 38.85268,-5.2656 0.68957,-2.00321 1.25376,-4.17002 1.25376,-4.81513 0,-0.6451 -4.77896,-1.47751 -10.61992,-1.84979 -17.34821,-1.10572 -25.40769,-8.6312 -28.97338,-27.05369 -1.6362,-8.4536 -1.62695,-10.0563 0.13538,-23.434278 5.21113,-39.558483 21.46169,-55.681825 53.51937,-53.100408 14.43641,1.16248 25.64438,3.583555 27.06295,5.845959 -1.89926,36.481281 -5.39751,48.322893 -10.80484,91.593847 -3.61714,29.16515 -9.93949,40.19832 -26.32195,45.93463 -5.99774,2.10011 -22.22964,3.67656 -26.71225,2.59432 z m 26.68583,-75.37323 c 1.70045,-9.423008 7.67815,-38.242573 -1.2797,-38.297832 -6.95146,0 -8.88544,2.46324 -10.92011,13.908559 -2.00462,11.276312 -1.92498,21.125023 0.19351,23.929083 2.05342,2.71798 10.7696,3.05205 12.0063,0.46019 z m -387.41597,38.04727 c -7.32495,-2.70752 -13.50767,-15.71724 -13.48885,-28.38333 1.55852,-22.508798 4.99098,-41.970844 7.72535,-65.142107 1.81946,-15.585278 1.99741,-15.748642 17.15602,-15.748642 8.97252,0 13.01514,0.534967 13.82698,1.829746 -2.42809,24.737842 -6.21772,47.1052 -6.86861,72.165033 2.55019,6.31582 11.68774,5.6202 13.54769,0.0182 6.1647,-21.013517 6.52343,-52.765073 11.2182,-72.917264 1.73376,-1.481622 25.7943,-1.315541 27.59037,0.190447 -5.81639,33.999687 -7.17987,73.541547 -13.10779,105.733037 -9.39072,2.88501 -15.88908,1.78962 -26.77235,1.78962 v -3.57924 c 0,-1.96858 -0.19845,-3.57924 -0.441,-3.57924 -0.24256,0 -2.94434,1.71909 -6.00399,3.82021 -4.35855,2.9931 -7.36604,3.90497 -13.89085,4.21168 -4.58033,0.21532 -9.30136,0.0316 -10.49117,-0.40813 z m 266.63773,-0.83156 c -5.84435,-2.59576 -12.55986,-12.40297 -14.54175,-21.23651 -2.21973,-9.89361 -2.12972,-13.07967 0.95309,-33.734 6.03788,-40.452779 16.96804,-52.761019 46.56786,-52.439174 13.42335,0.145954 32.38057,3.31419 34.19418,5.714721 -5.78133,30.135999 -6.08018,72.819013 -12.865,100.888513 -5.74355,1.29309 -23.25803,2.12637 -23.83457,-2.7286 l -0.34209,-3.18548 -5.44359,3.76751 c -6.26398,4.33533 -18.32718,5.77824 -24.68813,2.95302 z m 27.74164,-32.89089 c 2.86614,-10.803698 8.5225,-38.283244 1.19108,-42.342648 -7.72649,-0.65668 -9.73168,2.727756 -12.17641,20.551941 -2.36716,17.258547 -2.45662,21.950727 -0.45254,23.735307 2.04218,1.81848 9.56056,0.54025 11.43787,-1.9446 z m 154.63012,32.66794 c -9.44166,-4.64965 -15.81233,-17.93172 -15.80556,-32.95272 0.004,-9.09957 3.6282,-34.146983 6.1895,-42.777708 6.77541,-22.83092 18.88844,-31.82346 42.48146,-31.537599 14.29087,0.173153 33.4605,3.754055 34.76133,6.493442 0.48605,1.023568 0.66205,2.827425 0.39112,4.008574 -3.80764,26.004989 -7.5236,55.243061 -10.75503,79.459051 -2.64528,19.83448 -1.17827,18.0524 -14.47639,17.58556 -11.04043,-0.38756 -11.55857,-0.54561 -11.88915,-3.62654 -0.1901,-1.77172 -0.49386,-3.22131 -0.675,-3.22131 -0.18114,0 -2.64466,1.71282 -5.47446,3.80628 -6.33563,4.68701 -18.1601,6.00714 -24.74782,2.76297 z m 26.33499,-31.30263 c 4.82108,-14.848667 11.21848,-44.02841 2.51847,-43.987962 -8.22687,0 -9.95942,3.511889 -12.83359,26.013746 -1.61746,12.663126 -1.70859,15.662986 -0.53277,17.538266 1.69278,2.69975 7.14112,2.91869 10.84789,0.43595 z M 0.17129137,142.0138 C 8.6280135,90.225616 10.695752,47.917361 17.358869,9.3275747 27.63454,9.0627512 37.910211,8.79793 48.185882,8.5331087 42.212222,57.007143 33.957626,104.58878 30.735829,141.2726 24.551408,143.7557 6.0709335,144.83417 0.17129137,142.0138 Z M 49.60325,140.85227 c 5.509957,-38.83604 6.782198,-79.314069 13.967956,-104.68042 0.764772,-1.239377 4.852527,-1.789619 13.295108,-1.789619 12.87383,0 13.5039,0.33627 13.5039,7.207019 0,2.499695 0.34163,2.444658 5.13784,-0.827705 17.706876,-12.081077 34.834666,-5.658402 38.214156,14.329752 -3.91277,26.108361 -5.3406,50.493673 -9.98383,86.212113 -9.9262,3.34829 -16.4683,1.52405 -28.500746,1.17177 1.507647,-25.79892 4.049251,-39.76597 6.555636,-57.594398 2.10248,-14.936669 1.30745,-17.569574 -5.305296,-17.569574 -2.54245,0 -5.39782,0.805329 -6.34526,1.789619 -1.07608,1.117927 -2.37462,6.894466 -3.45977,15.390717 -5.363926,41.997046 -7.291391,55.085486 -8.36409,56.796296 -4.843689,2.87351 -27.683781,2.64996 -28.715604,-0.43557 z m 96.7866,-26.29514 c 7.4368,-15.93064 23.90033,-29.934144 30.33205,-45.9033 -4.90704,-2.597665 -21.97769,0.252488 -23.28029,-3.681374 -1.09975,-3.793335 2.87001,-28.832255 4.72013,-29.771978 3.0631,-1.555811 59.67583,-0.903096 60.42279,0.696642 0.20854,9.290314 -0.96178,16.364736 -2.05146,26.059387 -17.43444,23.51019 -17.39368,24.2181 -31.47798,48.392363 8.44315,2.0049 15.25515,1.34488 24.45224,1.34488 -0.98957,11.37291 -2.19166,20.05158 -3.99125,30.78143 -21.07556,0.25302 -42.15113,0.50606 -63.22669,0.7591 0.76509,-9.33945 0.37859,-20.04057 4.10046,-28.67715 z m 169.9254,26.88584 c 4.06362,-33.23648 8.71473,-68.024866 14.60863,-105.965044 0.65725,-0.578516 6.12452,-1.061713 12.14948,-1.073771 11.39605,-0.02281 14.42672,1.470164 12.99678,6.40247 -0.81364,2.806473 -0.72236,2.784378 5.45046,-1.319413 6.01504,-3.998905 15.90288,-6.256869 17.0106,-3.884501 0.88454,1.894375 -2.36739,27.456122 -3.77942,29.708122 -4.20887,3.65766 -14.98849,0.746849 -18.31555,4.317268 -6.31375,23.117367 -7.09794,46.544849 -10.75929,70.699539 -1.105,2.92941 -29.17337,3.99561 -29.36169,1.11533 z m 62.1715,-0.37677 c 6.00693,-44.915663 7.17105,-71.150237 14.02033,-104.939251 8.80128,-2.788952 14.67325,-1.37738 25.06213,-1.02887 l 0.34844,4.022039 c 0.19165,2.212122 0.67839,3.789894 1.08165,3.50616 9.88227,-6.953113 19.47462,-9.845651 21.56971,-6.50426 1.60785,8.07759 -1.67971,13.796124 -1.8691,22.854682 -0.0611,6.085489 -2.63662,8.331755 -9.58023,8.355614 -11.25146,0.03866 -10.71793,-1.22007 -16.07204,37.918806 -2.58523,18.89837 -4.92224,35.166 -5.19332,36.15029 -0.78136,2.83704 -28.53976,2.52021 -29.36757,-0.33521 z m 63.14054,0.33521 c 4.82149,-41.33123 9.8022,-76.413301 15.7826,-106.363547 9.65415,-0.858463 17.17068,-0.275516 27.22159,0.06022 -5.27116,32.995394 -9.25003,74.525907 -13.84695,106.303327 -4.79432,2.25858 -28.14764,2.52118 -29.15731,0 z M 456.3544,25.060603 c -1.00312,-3.460047 1.85533,-21.2859593 3.72812,-23.2494253 1.95531,-2.04997498 26.86319,-2.52709998 29.20703,-0.559478 0.093,20.0257853 -0.65731,23.5112813 -3.40557,25.1773753 -3.03433,1.966741 -29.01299,0.413415 -29.52958,-1.368472 z"/>
</svg>
