<svg xmlns="http://www.w3.org/2000/svg" width="1440" height="900"><path d="M822,422L910,483L923,282Z" fill="#e3e3e4" stroke="#e3e3e4" stroke-width="1.51"/><path d="M923,282L785,241L822,422Z" fill="#ecd4ca" stroke="#ecd4ca" stroke-width="1.51"/><path d="M910,483L1098,323L923,282Z" fill="#d2d4d5" stroke="#d2d4d5" stroke-width="1.51"/><path d="M923,282L1000,145L785,241Z" fill="#dcafa7" stroke="#dcafa7" stroke-width="1.51"/><path d="M910,483L1153,506L1098,323Z" fill="#bcd4e3" stroke="#bcd4e3" stroke-width="1.51"/><path d="M744,659L965,569L910,483Z" fill="#c5deed" stroke="#c5deed" stroke-width="1.51"/><path d="M1098,323L1000,145L923,282Z" fill="#cbafa9" stroke="#cbafa9" stroke-width="1.51"/><path d="M965,569L1153,506L910,483Z" fill="#b6d7e8" stroke="#b6d7e8" stroke-width="1.51"/><path d="M785,241L604,271L822,422Z" fill="#f8d9cb" stroke="#f8d9cb" stroke-width="1.51"/><path d="M748,86L694,176L785,241Z" fill="#eaa79b" stroke="#eaa79b" stroke-width="1.51"/><path d="M965,569L1127,604L1153,506Z" fill="#9ac4de" stroke="#9ac4de" stroke-width="1.51"/><path d="M1098,323L1157,166L1000,145Z" fill="#b79397" stroke="#b79397" stroke-width="1.51"/><path d="M1338,310L1157,166L1098,323Z" fill="#ab939f" stroke="#ab939f" stroke-width="1.51"/><path d="M822,422L744,659L910,483Z" fill="#dae9f1" stroke="#dae9f1" stroke-width="1.51"/><path d="M965,569L941,794L1127,604Z" fill="#88bdda" stroke="#88bdda" stroke-width="1.51"/><path d="M588,558L744,659L822,422Z" fill="#e2edf3" stroke="#e2edf3" stroke-width="1.51"/><path d="M694,176L604,271L785,241Z" fill="#f5bcaa" stroke="#f5bcaa" stroke-width="1.51"/><path d="M604,271L583,410L822,422Z" fill="#fce5d8" stroke="#fce5d8" stroke-width="1.51"/><path d="M413,143L494,271L604,271Z" fill="#f1a386" stroke="#f1a386" stroke-width="1.51"/><path d="M1000,145L748,86L785,241Z" fill="#dd9e97" stroke="#dd9e97" stroke-width="1.51"/><path d="M941,10L748,86L1000,145Z" fill="#c68485" stroke="#c68485" stroke-width="1.51"/><path d="M583,410L588,558L822,422Z" fill="#f6f0ed" stroke="#f6f0ed" stroke-width="1.51"/><path d="M1165,-70L941,10L1000,145Z" fill="#946a78" stroke="#946a78" stroke-width="1.51"/><path d="M583,410L510,422L588,558Z" fill="#f8e4da" stroke="#f8e4da" stroke-width="1.51"/><path d="M494,271L510,422L583,410Z" fill="#fcd3bd" stroke="#fcd3bd" stroke-width="1.51"/><path d="M1153,506L1323,427L1098,323Z" fill="#a5b8d2" stroke="#a5b8d2" stroke-width="1.51"/><path d="M1243,659L1323,427L1153,506Z" fill="#8badd3" stroke="#8badd3" stroke-width="1.51"/><path d="M744,659L941,794L965,569Z" fill="#9ec6e0" stroke="#9ec6e0" stroke-width="1.51"/><path d="M1127,604L1243,659L1153,506Z" fill="#7cafd3" stroke="#7cafd3" stroke-width="1.51"/><path d="M784,829L941,794L744,659Z" fill="#91b2d6" stroke="#91b2d6" stroke-width="1.51"/><path d="M1112,794L1243,659L1127,604Z" fill="#549bc8" stroke="#549bc8" stroke-width="1.51"/><path d="M1323,427L1338,310L1098,323Z" fill="#a4a3bc" stroke="#a4a3bc" stroke-width="1.51"/><path d="M604,271L494,271L583,410Z" fill="#fccbb2" stroke="#fccbb2" stroke-width="1.51"/><path d="M413,143L604,271L694,176Z" fill="#f0a38b" stroke="#f0a38b" stroke-width="1.51"/><path d="M941,794L1112,794L1127,604Z" fill="#5ea0ca" stroke="#5ea0ca" stroke-width="1.51"/><path d="M588,558L641,748L744,659Z" fill="#c0d1dd" stroke="#c0d1dd" stroke-width="1.51"/><path d="M451,745L641,748L588,558Z" fill="#babec7" stroke="#babec7" stroke-width="1.51"/><path d="M941,10L832,-70L748,86Z" fill="#ac7a80" stroke="#ac7a80" stroke-width="1.51"/><path d="M748,86L609,-38L694,176Z" fill="#d88a83" stroke="#d88a83" stroke-width="1.51"/><path d="M931,-155L832,-70L941,10Z" fill="#9e747d" stroke="#9e747d" stroke-width="1.51"/><path d="M1157,166L1165,-70L1000,145Z" fill="#9e6876" stroke="#9e6876" stroke-width="1.51"/><path d="M1338,310L1298,123L1157,166Z" fill="#9e7185" stroke="#9e7185" stroke-width="1.51"/><path d="M941,794L1019,905L1112,794Z" fill="#598aba" stroke="#598aba" stroke-width="1.51"/><path d="M641,748L784,829L744,659Z" fill="#a1bdda" stroke="#a1bdda" stroke-width="1.51"/><path d="M510,422L449,558L588,558Z" fill="#eed7ce" stroke="#eed7ce" stroke-width="1.51"/><path d="M308,443L449,558L510,422Z" fill="#f4c9b8" stroke="#f4c9b8" stroke-width="1.51"/><path d="M1298,123L1165,-70L1157,166Z" fill="#8c576e" stroke="#8c576e" stroke-width="1.51"/><path d="M832,-70L609,-38L748,86Z" fill="#b37f82" stroke="#b37f82" stroke-width="1.51"/><path d="M1497,559L1323,427L1243,659Z" fill="#7995bd" stroke="#7995bd" stroke-width="1.51"/><path d="M779,983L1019,905L941,794Z" fill="#6881a6" stroke="#6881a6" stroke-width="1.51"/><path d="M832,-70L744,-261L609,-38Z" fill="#b47f82" stroke="#b47f82" stroke-width="1.51"/><path d="M1165,-70L931,-155L941,10Z" fill="#8b6977" stroke="#8b6977" stroke-width="1.51"/><path d="M494,271L308,443L510,422Z" fill="#fac4aa" stroke="#fac4aa" stroke-width="1.51"/><path d="M609,-38L413,143L694,176Z" fill="#df8374" stroke="#df8374" stroke-width="1.51"/><path d="M1338,310L1508,271L1298,123Z" fill="#906678" stroke="#906678" stroke-width="1.51"/><path d="M1323,427L1508,271L1338,310Z" fill="#928398" stroke="#928398" stroke-width="1.51"/><path d="M1497,559L1490,505L1323,427Z" fill="#7b89a9" stroke="#7b89a9" stroke-width="1.51"/><path d="M1335,819L1243,659L1112,794Z" fill="#357db8" stroke="#357db8" stroke-width="1.51"/><path d="M643,998L779,983L784,829Z" fill="#828ba9" stroke="#828ba9" stroke-width="1.51"/><path d="M994,1169L1083,959L1019,905Z" fill="#4b729c" stroke="#4b729c" stroke-width="1.51"/><path d="M449,558L451,745L588,558Z" fill="#d0c3c0" stroke="#d0c3c0" stroke-width="1.51"/><path d="M282,608L451,745L449,558Z" fill="#c9aba8" stroke="#c9aba8" stroke-width="1.51"/><path d="M1019,905L1083,959L1112,794Z" fill="#43719e" stroke="#43719e" stroke-width="1.51"/><path d="M779,983L941,794L784,829Z" fill="#7c91b4" stroke="#7c91b4" stroke-width="1.51"/><path d="M1490,505L1508,271L1323,427Z" fill="#88859e" stroke="#88859e" stroke-width="1.51"/><path d="M1261,-172L1168,-166L1165,-70Z" fill="#6c4b68" stroke="#6c4b68" stroke-width="1.51"/><path d="M1165,-70L1168,-166L931,-155Z" fill="#7c5d71" stroke="#7c5d71" stroke-width="1.51"/><path d="M1353,-38L1165,-70L1298,123Z" fill="#674164" stroke="#674164" stroke-width="1.51"/><path d="M609,-38L453,-10L413,143Z" fill="#bf685d" stroke="#bf685d" stroke-width="1.51"/><path d="M496,-245L453,-10L609,-38Z" fill="#b16860" stroke="#b16860" stroke-width="1.51"/><path d="M1284,962L1335,819L1112,794Z" fill="#225f9b" stroke="#225f9b" stroke-width="1.51"/><path d="M1499,114L1353,-38L1298,123Z" fill="#723552" stroke="#723552" stroke-width="1.51"/><path d="M1430,820L1497,559L1243,659Z" fill="#4173a4" stroke="#4173a4" stroke-width="1.51"/><path d="M1688,405L1578,223L1508,271Z" fill="#8b6f7e" stroke="#8b6f7e" stroke-width="1.51"/><path d="M270,259L308,443L494,271Z" fill="#f1a488" stroke="#f1a488" stroke-width="1.51"/><path d="M270,259L494,271L413,143Z" fill="#e98b6d" stroke="#e98b6d" stroke-width="1.51"/><path d="M643,998L784,829L641,748Z" fill="#8f98b7" stroke="#8f98b7" stroke-width="1.51"/><path d="M1508,271L1499,114L1298,123Z" fill="#7f4658" stroke="#7f4658" stroke-width="1.51"/><path d="M1168,-166L744,-261L931,-155Z" fill="#966f7b" stroke="#966f7b" stroke-width="1.51"/><path d="M1353,-38L1261,-172L1165,-70Z" fill="#664264" stroke="#664264" stroke-width="1.51"/><path d="M1506,-243L1261,-172L1353,-38Z" fill="#572d4f" stroke="#572d4f" stroke-width="1.51"/><path d="M306,90L270,259L413,143Z" fill="#d86551" stroke="#d86551" stroke-width="1.51"/><path d="M931,-155L744,-261L832,-70Z" fill="#a8797f" stroke="#a8797f" stroke-width="1.51"/><path d="M1506,-243L744,-261L1168,-166Z" fill="#72556c" stroke="#72556c" stroke-width="1.51"/><path d="M308,443L282,608L449,558Z" fill="#e3b2a7" stroke="#e3b2a7" stroke-width="1.51"/><path d="M189,571L282,608L308,443Z" fill="#db9e97" stroke="#db9e97" stroke-width="1.51"/><path d="M422,969L643,998L641,748Z" fill="#8a7e92" stroke="#8a7e92" stroke-width="1.51"/><path d="M1195,1087L1284,962L1083,959Z" fill="#235a8e" stroke="#235a8e" stroke-width="1.51"/><path d="M422,969L641,748L451,745Z" fill="#9f8da5" stroke="#9f8da5" stroke-width="1.51"/><path d="M337,-79L306,90L453,-10Z" fill="#a64842" stroke="#a64842" stroke-width="1.51"/><path d="M453,-10L306,90L413,143Z" fill="#c95a4c" stroke="#c95a4c" stroke-width="1.51"/><path d="M1335,819L1430,820L1243,659Z" fill="#2769a6" stroke="#2769a6" stroke-width="1.51"/><path d="M1284,962L1430,820L1335,819Z" fill="#134a85" stroke="#134a85" stroke-width="1.51"/><path d="M1688,405L1508,271L1490,505Z" fill="#88849c" stroke="#88849c" stroke-width="1.51"/><path d="M1508,271L1578,223L1499,114Z" fill="#835060" stroke="#835060" stroke-width="1.51"/><path d="M1083,959L1284,962L1112,794Z" fill="#265e90" stroke="#265e90" stroke-width="1.51"/><path d="M823,1101L1019,905L779,983Z" fill="#6f83a6" stroke="#6f83a6" stroke-width="1.51"/><path d="M744,-261L591,-248L609,-38Z" fill="#b57877" stroke="#b57877" stroke-width="1.51"/><path d="M1497,559L1580,633L1490,505Z" fill="#6980a4" stroke="#6980a4" stroke-width="1.51"/><path d="M1430,820L1580,633L1497,559Z" fill="#406c98" stroke="#406c98" stroke-width="1.51"/><path d="M1578,223L1606,168L1499,114Z" fill="#7e4457" stroke="#7e4457" stroke-width="1.51"/><path d="M1499,114L1505,-62L1353,-38Z" fill="#4e2240" stroke="#4e2240" stroke-width="1.51"/><path d="M1688,405L1606,168L1578,223Z" fill="#8a6572" stroke="#8a6572" stroke-width="1.51"/><path d="M643,998L823,1101L779,983Z" fill="#818ba9" stroke="#818ba9" stroke-width="1.51"/><path d="M86,300L179,414L270,259Z" fill="#df7e6c" stroke="#df7e6c" stroke-width="1.51"/><path d="M270,259L179,414L308,443Z" fill="#ea9986" stroke="#ea9986" stroke-width="1.51"/><path d="M1606,168L1505,-62L1499,114Z" fill="#6b2b46" stroke="#6b2b46" stroke-width="1.51"/><path d="M496,-245L337,-79L453,-10Z" fill="#ac564d" stroke="#ac564d" stroke-width="1.51"/><path d="M306,90L164,174L270,259Z" fill="#d05647" stroke="#d05647" stroke-width="1.51"/><path d="M643,998L582,1112L823,1101Z" fill="#8689a4" stroke="#8689a4" stroke-width="1.51"/><path d="M282,608L318,824L451,745Z" fill="#aa8993" stroke="#aa8993" stroke-width="1.51"/><path d="M193,734L318,824L282,608Z" fill="#a47883" stroke="#a47883" stroke-width="1.51"/><path d="M179,414L189,571L308,443Z" fill="#e49e95" stroke="#e49e95" stroke-width="1.51"/><path d="M591,-248L496,-245L609,-38Z" fill="#b4706a" stroke="#b4706a" stroke-width="1.51"/><path d="M296,-263L496,-245L591,-248Z" fill="#ae5d54" stroke="#ae5d54" stroke-width="1.51"/><path d="M1617,904L1595,799L1430,820Z" fill="#0e4179" stroke="#0e4179" stroke-width="1.51"/><path d="M994,1169L1195,1087L1083,959Z" fill="#3b6996" stroke="#3b6996" stroke-width="1.51"/><path d="M318,824L422,969L451,745Z" fill="#967183" stroke="#967183" stroke-width="1.51"/><path d="M1580,633L1688,405L1490,505Z" fill="#7787a7" stroke="#7787a7" stroke-width="1.51"/><path d="M183,-11L164,174L306,90Z" fill="#b92f33" stroke="#b92f33" stroke-width="1.51"/><path d="M582,1112L994,1169L823,1101Z" fill="#7a88a8" stroke="#7a88a8" stroke-width="1.51"/><path d="M823,1101L994,1169L1019,905Z" fill="#607ca1" stroke="#607ca1" stroke-width="1.51"/><path d="M1580,633L1595,799L1688,405Z" fill="#58799f" stroke="#58799f" stroke-width="1.51"/><path d="M1430,820L1595,799L1580,633Z" fill="#21588d" stroke="#21588d" stroke-width="1.51"/><path d="M1488,974L1430,820L1284,962Z" fill="#09376b" stroke="#09376b" stroke-width="1.51"/><path d="M422,969L582,1112L643,998Z" fill="#8a7b8e" stroke="#8a7b8e" stroke-width="1.51"/><path d="M-3,662L193,734L189,571Z" fill="#a9717b" stroke="#a9717b" stroke-width="1.51"/><path d="M189,571L193,734L282,608Z" fill="#bc8789" stroke="#bc8789" stroke-width="1.51"/><path d="M318,824L308,1007L422,969Z" fill="#855564" stroke="#855564" stroke-width="1.51"/><path d="M-37,423L189,571L179,414Z" fill="#d28b88" stroke="#d28b88" stroke-width="1.51"/><path d="M1359,1115L1284,962L1195,1087Z" fill="#164d87" stroke="#164d87" stroke-width="1.51"/><path d="M1359,1115L1488,974L1284,962Z" fill="#0b3b71" stroke="#0b3b71" stroke-width="1.51"/><path d="M134,-217L183,-11L337,-79Z" fill="#95232d" stroke="#95232d" stroke-width="1.51"/><path d="M337,-79L183,-11L306,90Z" fill="#9c3134" stroke="#9c3134" stroke-width="1.51"/><path d="M13,279L86,300L164,174Z" fill="#c2594c" stroke="#c2594c" stroke-width="1.51"/><path d="M164,174L86,300L270,259Z" fill="#d46351" stroke="#d46351" stroke-width="1.51"/><path d="M1606,168L1592,-108L1505,-62Z" fill="#4c213f" stroke="#4c213f" stroke-width="1.51"/><path d="M1505,-62L1506,-243L1353,-38Z" fill="#4c213f" stroke="#4c213f" stroke-width="1.51"/><path d="M1668,-269L1592,-108L1606,168Z" fill="#4c213f" stroke="#4c213f" stroke-width="1.51"/><path d="M994,1169L1359,1115L1195,1087Z" fill="#235b8e" stroke="#235b8e" stroke-width="1.51"/><path d="M1592,-108L1506,-243L1505,-62Z" fill="#4c213f" stroke="#4c213f" stroke-width="1.51"/><path d="M1261,-172L1506,-243L1168,-166Z" fill="#60395d" stroke="#60395d" stroke-width="1.51"/><path d="M422,969L466,1152L582,1112Z" fill="#8b7180" stroke="#8b7180" stroke-width="1.51"/><path d="M127,973L308,1007L318,824Z" fill="#7c4154" stroke="#7c4154" stroke-width="1.51"/><path d="M1488,974L1617,904L1430,820Z" fill="#053061" stroke="#053061" stroke-width="1.51"/><path d="M1595,799L1617,904L1688,405Z" fill="#316393" stroke="#316393" stroke-width="1.51"/><path d="M1643,1140L1617,904L1488,974Z" fill="#053061" stroke="#053061" stroke-width="1.51"/><path d="M293,1093L466,1152L422,969Z" fill="#885f6c" stroke="#885f6c" stroke-width="1.51"/><path d="M582,1112L466,1152L994,1169Z" fill="#8689a4" stroke="#8689a4" stroke-width="1.51"/><path d="M496,-245L296,-263L337,-79Z" fill="#a74a44" stroke="#a74a44" stroke-width="1.51"/><path d="M744,-261L296,-263L591,-248Z" fill="#b36c65" stroke="#b36c65" stroke-width="1.51"/><path d="M-75,117L13,279L164,174Z" fill="#a83b3a" stroke="#a83b3a" stroke-width="1.51"/><path d="M86,300L-37,423L179,414Z" fill="#ca7d75" stroke="#ca7d75" stroke-width="1.51"/><path d="M-75,117L164,174L183,-11Z" fill="#a4152a" stroke="#a4152a" stroke-width="1.51"/><path d="M308,1007L293,1093L422,969Z" fill="#845363" stroke="#845363" stroke-width="1.51"/><path d="M127,973L293,1093L308,1007Z" fill="#7b4053" stroke="#7b4053" stroke-width="1.51"/><path d="M127,973L318,824L193,734Z" fill="#884c65" stroke="#884c65" stroke-width="1.51"/><path d="M13,279L-37,423L86,300Z" fill="#b86c65" stroke="#b86c65" stroke-width="1.51"/><path d="M-37,423L-3,662L189,571Z" fill="#b07c81" stroke="#b07c81" stroke-width="1.51"/><path d="M-3,662L15,729L193,734Z" fill="#875d71" stroke="#875d71" stroke-width="1.51"/><path d="M296,-263L134,-217L337,-79Z" fill="#992d32" stroke="#992d32" stroke-width="1.51"/><path d="M-248,290L-223,461L-37,423Z" fill="#b47774" stroke="#b47774" stroke-width="1.51"/><path d="M15,729L127,973L193,734Z" fill="#824767" stroke="#824767" stroke-width="1.51"/><path d="M1359,1115L1524,1158L1488,974Z" fill="#053061" stroke="#053061" stroke-width="1.51"/><path d="M994,1169L1524,1158L1359,1115Z" fill="#144b86" stroke="#144b86" stroke-width="1.51"/><path d="M1592,-108L1668,-269L1506,-243Z" fill="#4c213f" stroke="#4c213f" stroke-width="1.51"/><path d="M1506,-243L1668,-269L744,-261Z" fill="#613a5f" stroke="#613a5f" stroke-width="1.51"/><path d="M744,-261L1668,-269L296,-263Z" fill="#9e747d" stroke="#9e747d" stroke-width="1.51"/><path d="M1688,405L1668,-269L1606,168Z" fill="#743149" stroke="#743149" stroke-width="1.51"/><path d="M-77,-3L-75,117L183,-11Z" fill="#770422" stroke="#770422" stroke-width="1.51"/><path d="M1617,904L1643,1140L1688,405Z" fill="#124883" stroke="#124883" stroke-width="1.51"/><path d="M1524,1158L1643,1140L1488,974Z" fill="#053061" stroke="#053061" stroke-width="1.51"/><path d="M134,-217L-77,-3L183,-11Z" fill="#7b0523" stroke="#7b0523" stroke-width="1.51"/><path d="M127,973L97,1112L293,1093Z" fill="#74334a" stroke="#74334a" stroke-width="1.51"/><path d="M293,1093L97,1112L466,1152Z" fill="#7f4759" stroke="#7f4759" stroke-width="1.51"/><path d="M8,1135L97,1112L127,973Z" fill="#602843" stroke="#602843" stroke-width="1.51"/><path d="M-56,892L127,973L15,729Z" fill="#5d2e4e" stroke="#5d2e4e" stroke-width="1.51"/><path d="M-153,751L-56,892L15,729Z" fill="#654163" stroke="#654163" stroke-width="1.51"/><path d="M-153,751L15,729L-3,662Z" fill="#72546c" stroke="#72546c" stroke-width="1.51"/><path d="M-181,612L-3,662L-37,423Z" fill="#9e747d" stroke="#9e747d" stroke-width="1.51"/><path d="M134,-217L3,-260L-77,-3Z" fill="#6c0120" stroke="#6c0120" stroke-width="1.51"/><path d="M296,-263L3,-260L134,-217Z" fill="#8c0a25" stroke="#8c0a25" stroke-width="1.51"/><path d="M-75,117L-248,290L13,279Z" fill="#a64842" stroke="#a64842" stroke-width="1.51"/><path d="M-77,-3L-166,98L-75,117Z" fill="#830724" stroke="#830724" stroke-width="1.51"/><path d="M-179,-93L-166,98L-77,-3Z" fill="#67001f" stroke="#67001f" stroke-width="1.51"/><path d="M-223,461L-181,612L-37,423Z" fill="#ac7b80" stroke="#ac7b80" stroke-width="1.51"/><path d="M-181,612L-153,751L-3,662Z" fill="#7e5e71" stroke="#7e5e71" stroke-width="1.51"/><path d="M-181,612L-247,903L-153,751Z" fill="#6b4a67" stroke="#6b4a67" stroke-width="1.51"/><path d="M-248,290L-37,423L13,279Z" fill="#b26962" stroke="#b26962" stroke-width="1.51"/><path d="M-166,98L-248,290L-75,117Z" fill="#9b3033" stroke="#9b3033" stroke-width="1.51"/><path d="M97,1112L8,1135L466,1152Z" fill="#76364d" stroke="#76364d" stroke-width="1.51"/><path d="M-56,892L8,1135L127,973Z" fill="#532340" stroke="#532340" stroke-width="1.51"/><path d="M-149,1083L8,1135L-56,892Z" fill="#4c213f" stroke="#4c213f" stroke-width="1.51"/><path d="M-166,98L-179,-93L-248,290Z" fill="#8d1127" stroke="#8d1127" stroke-width="1.51"/><path d="M3,-260L-179,-93L-77,-3Z" fill="#67001f" stroke="#67001f" stroke-width="1.51"/><path d="M-153,751L-247,903L-56,892Z" fill="#593152" stroke="#593152" stroke-width="1.51"/><path d="M-223,461L-247,903L-181,612Z" fill="#836273" stroke="#836273" stroke-width="1.51"/><path d="M-248,290L-247,903L-223,461Z" fill="#a2767e" stroke="#a2767e" stroke-width="1.51"/><path d="M-247,903L-149,1083L-56,892Z" fill="#4c213f" stroke="#4c213f" stroke-width="1.51"/><path d="M3,-260L-223,-228L-179,-93Z" fill="#67001f" stroke="#67001f" stroke-width="1.51"/><path d="M-179,-93L-223,-228L-248,290Z" fill="#67001f" stroke="#67001f" stroke-width="1.51"/></svg>